<svg width="74" height="74" viewBox="0 0 74 74" fill="none" xmlns="http://www.w3.org/2000/svg">
    <path d="M28.523 55.1363H45.4731H28.523ZM36.9999 4.35498V7.98222V4.35498ZM60.0837 13.9164L57.5192 16.4808L60.0837 13.9164ZM69.6451 37.0001H66.0178H69.6451ZM7.98198 37.0001H4.35474H7.98198ZM16.4806 16.4808L13.9161 13.9164L16.4806 16.4808ZM24.174 49.8261C21.6381 47.2895 19.9112 44.0579 19.2118 40.54C18.5124 37.022 18.8719 33.3757 20.2447 30.062C21.6175 26.7483 23.9421 23.9161 26.9245 21.9235C29.9068 19.9309 33.4131 18.8673 36.9999 18.8673C40.5867 18.8673 44.093 19.9309 47.0753 21.9235C50.0577 23.9161 52.3823 26.7483 53.7551 30.062C55.1279 33.3757 55.4874 37.022 54.788 40.54C54.0886 44.0579 52.3617 47.2895 49.8258 49.8261L47.8381 51.8102C46.7017 52.9468 45.8003 54.2961 45.1854 55.781C44.5705 57.266 44.2542 58.8575 44.2544 60.4648V62.3908C44.2544 64.3148 43.4901 66.16 42.1296 67.5205C40.7691 68.881 38.9239 69.6453 36.9999 69.6453C35.0759 69.6453 33.2307 68.881 31.8702 67.5205C30.5097 66.16 29.7454 64.3148 29.7454 62.3908V60.4648C29.7454 57.2184 28.4541 54.1026 26.1617 51.8102L24.174 49.8261Z" stroke="#EC7979" stroke-width="6.83333" stroke-linecap="round" stroke-linejoin="round"/>
</svg>
